<svg xmlns="http://www.w3.org/2000/svg" width="960" height="540" viewBox="0 0 960 540">
  <rect width="960" height="540" fill="#f8f7f2"/>
  <rect x="100" y="120" width="230" height="250" rx="24" fill="#fff" stroke="#d7d1c2" stroke-width="3"/>
  <rect x="365" y="170" width="230" height="160" rx="24" fill="#fff" stroke="#d7d1c2" stroke-width="3"/>
  <rect x="630" y="120" width="230" height="250" rx="24" fill="#fff" stroke="#d7d1c2" stroke-width="3"/>
  <text x="215" y="160" fill="#243447" font-family="Arial, sans-serif" font-size="24" text-anchor="middle">Página A</text>
  <text x="480" y="208" fill="#243447" font-family="Arial, sans-serif" font-size="24" text-anchor="middle">fragment</text>
  <text x="745" y="160" fill="#243447" font-family="Arial, sans-serif" font-size="24" text-anchor="middle">Página B</text>
  <path d="M330 245h35m0 0l-12-12m12 12l-12 12" stroke="#7a8570" stroke-width="5" fill="none" stroke-linecap="round"/>
  <path d="M595 245h35m0 0l-12-12m12 12l-12 12" stroke="#7a8570" stroke-width="5" fill="none" stroke-linecap="round"/>
  <rect x="130" y="200" width="170" height="16" rx="8" fill="#9aa7b4"/>
  <rect x="130" y="232" width="150" height="16" rx="8" fill="#9aa7b4"/>
  <rect x="660" y="200" width="170" height="16" rx="8" fill="#9aa7b4"/>
  <rect x="660" y="232" width="150" height="16" rx="8" fill="#9aa7b4"/>
</svg>
