<svg xmlns="http://www.w3.org/2000/svg" width="960" height="540" viewBox="0 0 960 540">
  <rect width="960" height="540" fill="#f5f7fa"/>
  <rect x="90" y="90" width="780" height="250" rx="24" fill="#fff" stroke="#d9dee5" stroke-width="3"/>
  <rect x="90" y="90" width="780" height="58" rx="24" fill="#eef2f7"/>
  <text x="130" y="128" fill="#243447" font-family="Arial, sans-serif" font-size="20" font-weight="700">Pos</text>
  <text x="220" y="128" fill="#243447" font-family="Arial, sans-serif" font-size="20" font-weight="700">Time</text>
  <text x="520" y="128" fill="#243447" font-family="Arial, sans-serif" font-size="20" font-weight="700">Pts</text>
  <text x="620" y="128" fill="#243447" font-family="Arial, sans-serif" font-size="20" font-weight="700">MJ</text>
  <rect x="102" y="170" width="6" height="42" rx="3" fill="#1a9c44"/>
  <rect x="102" y="224" width="6" height="42" rx="3" fill="#1769ff"/>
  <text x="130" y="198" fill="#243447" font-family="Arial, sans-serif" font-size="22">1</text>
  <text x="220" y="198" fill="#243447" font-family="Arial, sans-serif" font-size="22">Time Alpha</text>
  <text x="520" y="198" fill="#243447" font-family="Arial, sans-serif" font-size="22">18</text>
  <text x="620" y="198" fill="#243447" font-family="Arial, sans-serif" font-size="22">7</text>
  <text x="130" y="252" fill="#243447" font-family="Arial, sans-serif" font-size="22">2</text>
  <text x="220" y="252" fill="#243447" font-family="Arial, sans-serif" font-size="22">Time Beta</text>
  <text x="520" y="252" fill="#243447" font-family="Arial, sans-serif" font-size="22">15</text>
  <text x="620" y="252" fill="#243447" font-family="Arial, sans-serif" font-size="22">7</text>
  <circle cx="140" cy="396" r="10" fill="#1a9c44"/>
  <text x="165" y="402" fill="#243447" font-family="Arial, sans-serif" font-size="20">Classificado</text>
  <circle cx="350" cy="396" r="10" fill="#1769ff"/>
  <text x="375" y="402" fill="#243447" font-family="Arial, sans-serif" font-size="20">Playoff</text>
  <rect x="90" y="430" width="780" height="60" rx="18" fill="#fff" stroke="#d9dee5" stroke-width="3"/>
  <text x="120" y="468" fill="#5f6b7a" font-family="Arial, sans-serif" font-size="20">Fase • Rodada • 27/03/2026 • BO5</text>
  <text x="580" y="468" fill="#243447" font-family="Arial, sans-serif" font-size="20">Time A x Time B</text>
</svg>
